<svg xmlns="http://www.w3.org/2000/svg" viewBox="0 0 874.44 125.55"><defs><style>.cls-1{fill:#00adde;}</style></defs><g id="Capa_2" data-name="Capa 2"><g id="Layer_1" data-name="Layer 1"><path d="M391.8,16.94a1,1,0,0,1-1-.44,1.33,1.33,0,0,1-.09-1.05l6-13.87A4.47,4.47,0,0,1,397.5.44,1.67,1.67,0,0,1,398.73,0h10.44a1.37,1.37,0,0,1,1.06.39c.23.27.2.63-.09,1.1L401.28,15.1a12.59,12.59,0,0,1-1,1.31,2,2,0,0,1-1.54.53ZM0,89.9V1.83H17.56V89.9ZM96.92,72.34V89.9H86.09a12,12,0,0,1-9.64-5,32.93,32.93,0,0,1-18.22,5.55,33.48,33.48,0,0,1,0-66.95,34.09,34.09,0,0,1,16,4V1.83H91.77V70.09A2.31,2.31,0,0,0,94,72.34ZM74.21,56.89a15.92,15.92,0,1,0-16,16A15.95,15.95,0,0,0,74.21,56.89ZM147,66.66c4.76,2.64,11.1,6.21,15.32,8.58a33.41,33.41,0,1,1-.92-38A30.9,30.9,0,0,1,167,49.76l-16.77,7.53L124,69a16.37,16.37,0,0,0,10.43,3.83A15.74,15.74,0,0,0,147,66.66ZM118.44,56.49l26.28-11.75a15.92,15.92,0,0,0-26.28,11.75Zm54.54.4a33.47,33.47,0,1,1,33.54,33.54A33.47,33.47,0,0,1,173,56.89Zm17.56,0a16,16,0,1,0,16-16A15.95,15.95,0,0,0,190.54,56.89Zm55.33,0a33.45,33.45,0,0,1,33.4-33.41,32.8,32.8,0,0,1,12,2.25L300.14,14l14.13,10.29-8.85,11.89a32.85,32.85,0,0,1,7.39,20.73,33.47,33.47,0,1,1-66.94,0Zm66.94,34.73v.52a33.47,33.47,0,0,1-66.94,0v-.52H263.3v.52a16,16,0,1,0,31.95,0v-.52ZM279.27,41a15.92,15.92,0,1,0,16,15.85,16.66,16.66,0,0,0-1.05-5.68A15.82,15.82,0,0,0,280.07,41Zm78-16.63L355.86,42.5a11.41,11.41,0,0,0-5.94-1.59,12.4,12.4,0,0,0-12.41,12.41V89.9H320.08v-66l17.43,2.24a30.43,30.43,0,0,1,12.41-2.64A27.63,27.63,0,0,1,357.31,24.41Zm71.17,47.93a2.23,2.23,0,0,1-2.24-2.25V23.88l-17.56,3.56a34.09,34.09,0,0,0-16-4,33.48,33.48,0,1,0,18.22,61.4,11.75,11.75,0,0,0,9.64,5h10.83V72.34Zm-35.78.53a16,16,0,1,1,16-16A16,16,0,0,1,392.7,72.87Zm71.17-57.18a5.13,5.13,0,0,0-5,5.15v3h15.31l-2,17.56H458.86V89.9H441.29V41.44h-5.94V23.88h5.94V19.52A17.7,17.7,0,0,1,459,1.83h17.56V15.69Zm19.94-5.15a8.72,8.72,0,0,1,17.43,0,8.72,8.72,0,1,1-17.43,0Zm0,13.34h17.43v66H483.81Zm47.4,34.59-5.28,5.15V89.9H508.5V1.83h17.43V44.48l21.26-20.6h19.68L544.15,45.93l24.7,44H548.78Z"/><path d="M597.76,23.48a33.48,33.48,0,1,0,33.41,33.41A33.47,33.47,0,0,0,597.76,23.48Zm0,49.39a16,16,0,1,1,16-16A15.95,15.95,0,0,1,597.76,72.87Z"/><path class="cls-1" d="M800.05,57A33.67,33.67,0,0,1,766.42,90.6a34.58,34.58,0,0,1-16-4.11v25.68H732.93V23.88l17.48,3.57a34.59,34.59,0,0,1,16-4A33.56,33.56,0,0,1,800.05,57Zm-17.61,0a16,16,0,1,0-16,16A16,16,0,0,0,782.44,57Z"/><path class="cls-1" d="M874.44,57A33.67,33.67,0,0,1,840.81,90.6a34.58,34.58,0,0,1-16-4.11v25.68H807.32V23.88l17.48,3.57a34.59,34.59,0,0,1,16-4A33.56,33.56,0,0,1,874.44,57Zm-17.61,0a16,16,0,1,0-16,16A16,16,0,0,0,856.83,57Z"/><path class="cls-1" d="M725.66,72.46V90.07H714.8a11.8,11.8,0,0,1-9.66-5,33.49,33.49,0,1,1-18.27-61.56,34.26,34.26,0,0,1,16,4l17.6-3.57V70.21a2.23,2.23,0,0,0,2.25,2.25ZM702.89,57a16,16,0,1,0-16,16A16,16,0,0,0,702.89,57Z"/><circle class="cls-1" cx="642.48" cy="56.89" r="7.78"/></g></g></svg>